<mxfile host="app.diagrams.net" modified="2022-06-30T09:17:13.514Z" agent="5.0 (Macintosh; Intel Mac OS X 10_15_7) AppleWebKit/605.1.15 (KHTML, like Gecko) Version/15.3 Safari/605.1.15" etag="8HNlvFIUULONK8y7RDtn" version="20.0.4" type="github">
  <diagram id="JfQKZL2tGRuZfobABAPK" name="Page-1">
    <mxGraphModel dx="1337" dy="800" grid="1" gridSize="10" guides="1" tooltips="1" connect="1" arrows="1" fold="1" page="1" pageScale="1" pageWidth="827" pageHeight="1169" math="0" shadow="0">
      <root>
        <mxCell id="0" />
        <mxCell id="1" parent="0" />
        <mxCell id="L2EDGP9bUQQvMHzrjToU-14" value="" style="rounded=0;whiteSpace=wrap;html=1;dashed=1;" vertex="1" parent="1">
          <mxGeometry x="80" y="280" width="410" height="340" as="geometry" />
        </mxCell>
        <mxCell id="L2EDGP9bUQQvMHzrjToU-9" style="edgeStyle=orthogonalEdgeStyle;rounded=0;orthogonalLoop=1;jettySize=auto;html=1;exitX=0.5;exitY=1;exitDx=0;exitDy=0;entryX=0.5;entryY=0;entryDx=0;entryDy=0;" edge="1" parent="1" source="L2EDGP9bUQQvMHzrjToU-1" target="L2EDGP9bUQQvMHzrjToU-3">
          <mxGeometry relative="1" as="geometry" />
        </mxCell>
        <mxCell id="L2EDGP9bUQQvMHzrjToU-1" value="初始层" style="rounded=0;whiteSpace=wrap;html=1;" vertex="1" parent="1">
          <mxGeometry x="120" y="230" width="80" height="30" as="geometry" />
        </mxCell>
        <mxCell id="L2EDGP9bUQQvMHzrjToU-10" style="edgeStyle=orthogonalEdgeStyle;rounded=0;orthogonalLoop=1;jettySize=auto;html=1;exitX=0.5;exitY=1;exitDx=0;exitDy=0;entryX=0.5;entryY=0;entryDx=0;entryDy=0;" edge="1" parent="1" source="L2EDGP9bUQQvMHzrjToU-3" target="L2EDGP9bUQQvMHzrjToU-4">
          <mxGeometry relative="1" as="geometry" />
        </mxCell>
        <mxCell id="L2EDGP9bUQQvMHzrjToU-3" value="特征层1" style="rounded=0;whiteSpace=wrap;html=1;" vertex="1" parent="1">
          <mxGeometry x="120" y="310" width="80" height="30" as="geometry" />
        </mxCell>
        <mxCell id="L2EDGP9bUQQvMHzrjToU-12" style="edgeStyle=orthogonalEdgeStyle;rounded=0;orthogonalLoop=1;jettySize=auto;html=1;exitX=0.5;exitY=1;exitDx=0;exitDy=0;entryX=0.5;entryY=0;entryDx=0;entryDy=0;" edge="1" parent="1" source="L2EDGP9bUQQvMHzrjToU-4" target="L2EDGP9bUQQvMHzrjToU-5">
          <mxGeometry relative="1" as="geometry" />
        </mxCell>
        <mxCell id="L2EDGP9bUQQvMHzrjToU-13" value="" style="edgeStyle=orthogonalEdgeStyle;rounded=0;orthogonalLoop=1;jettySize=auto;html=1;" edge="1" parent="1" source="L2EDGP9bUQQvMHzrjToU-4" target="L2EDGP9bUQQvMHzrjToU-6">
          <mxGeometry relative="1" as="geometry" />
        </mxCell>
        <mxCell id="L2EDGP9bUQQvMHzrjToU-18" style="edgeStyle=orthogonalEdgeStyle;rounded=0;orthogonalLoop=1;jettySize=auto;html=1;exitX=1;exitY=0.5;exitDx=0;exitDy=0;entryX=0;entryY=0.5;entryDx=0;entryDy=0;" edge="1" parent="1" source="L2EDGP9bUQQvMHzrjToU-4" target="L2EDGP9bUQQvMHzrjToU-16">
          <mxGeometry relative="1" as="geometry" />
        </mxCell>
        <mxCell id="L2EDGP9bUQQvMHzrjToU-4" value="特征层2" style="rounded=0;whiteSpace=wrap;html=1;" vertex="1" parent="1">
          <mxGeometry x="120" y="370" width="80" height="30" as="geometry" />
        </mxCell>
        <mxCell id="L2EDGP9bUQQvMHzrjToU-20" style="edgeStyle=orthogonalEdgeStyle;rounded=0;orthogonalLoop=1;jettySize=auto;html=1;exitX=1;exitY=0.5;exitDx=0;exitDy=0;entryX=0;entryY=0.5;entryDx=0;entryDy=0;" edge="1" parent="1" source="L2EDGP9bUQQvMHzrjToU-5" target="L2EDGP9bUQQvMHzrjToU-19">
          <mxGeometry relative="1" as="geometry" />
        </mxCell>
        <mxCell id="L2EDGP9bUQQvMHzrjToU-5" value="特征层3" style="rounded=0;whiteSpace=wrap;html=1;" vertex="1" parent="1">
          <mxGeometry x="120" y="430" width="80" height="30" as="geometry" />
        </mxCell>
        <mxCell id="L2EDGP9bUQQvMHzrjToU-22" style="edgeStyle=orthogonalEdgeStyle;rounded=0;orthogonalLoop=1;jettySize=auto;html=1;exitX=1;exitY=0.5;exitDx=0;exitDy=0;entryX=0;entryY=0.5;entryDx=0;entryDy=0;" edge="1" parent="1" source="L2EDGP9bUQQvMHzrjToU-6" target="L2EDGP9bUQQvMHzrjToU-21">
          <mxGeometry relative="1" as="geometry" />
        </mxCell>
        <mxCell id="L2EDGP9bUQQvMHzrjToU-6" value="特征层4" style="rounded=0;whiteSpace=wrap;html=1;" vertex="1" parent="1">
          <mxGeometry x="120" y="500" width="80" height="30" as="geometry" />
        </mxCell>
        <mxCell id="L2EDGP9bUQQvMHzrjToU-15" value="ResNet101" style="text;html=1;strokeColor=none;fillColor=none;align=center;verticalAlign=middle;whiteSpace=wrap;rounded=0;dashed=1;" vertex="1" parent="1">
          <mxGeometry x="20" y="420" width="60" height="30" as="geometry" />
        </mxCell>
        <mxCell id="L2EDGP9bUQQvMHzrjToU-23" style="edgeStyle=orthogonalEdgeStyle;rounded=0;orthogonalLoop=1;jettySize=auto;html=1;exitX=0.5;exitY=1;exitDx=0;exitDy=0;" edge="1" parent="1" source="L2EDGP9bUQQvMHzrjToU-16">
          <mxGeometry relative="1" as="geometry">
            <mxPoint x="280" y="445" as="targetPoint" />
          </mxGeometry>
        </mxCell>
        <mxCell id="L2EDGP9bUQQvMHzrjToU-32" style="edgeStyle=orthogonalEdgeStyle;rounded=0;orthogonalLoop=1;jettySize=auto;html=1;exitX=1;exitY=0.5;exitDx=0;exitDy=0;entryX=0;entryY=0.5;entryDx=0;entryDy=0;" edge="1" parent="1" source="L2EDGP9bUQQvMHzrjToU-16" target="L2EDGP9bUQQvMHzrjToU-28">
          <mxGeometry relative="1" as="geometry" />
        </mxCell>
        <mxCell id="L2EDGP9bUQQvMHzrjToU-16" value="CBAM" style="rounded=0;whiteSpace=wrap;html=1;" vertex="1" parent="1">
          <mxGeometry x="240" y="370" width="80" height="30" as="geometry" />
        </mxCell>
        <mxCell id="L2EDGP9bUQQvMHzrjToU-24" style="edgeStyle=orthogonalEdgeStyle;rounded=0;orthogonalLoop=1;jettySize=auto;html=1;exitX=0.5;exitY=1;exitDx=0;exitDy=0;" edge="1" parent="1" source="L2EDGP9bUQQvMHzrjToU-19">
          <mxGeometry relative="1" as="geometry">
            <mxPoint x="360" y="520" as="targetPoint" />
          </mxGeometry>
        </mxCell>
        <mxCell id="L2EDGP9bUQQvMHzrjToU-33" style="edgeStyle=orthogonalEdgeStyle;rounded=0;orthogonalLoop=1;jettySize=auto;html=1;exitX=1;exitY=0.5;exitDx=0;exitDy=0;entryX=0;entryY=0.5;entryDx=0;entryDy=0;" edge="1" parent="1" source="L2EDGP9bUQQvMHzrjToU-19" target="L2EDGP9bUQQvMHzrjToU-29">
          <mxGeometry relative="1" as="geometry">
            <mxPoint x="520" y="453" as="targetPoint" />
          </mxGeometry>
        </mxCell>
        <mxCell id="L2EDGP9bUQQvMHzrjToU-19" value="CBAM" style="rounded=0;whiteSpace=wrap;html=1;" vertex="1" parent="1">
          <mxGeometry x="320" y="430" width="80" height="30" as="geometry" />
        </mxCell>
        <mxCell id="L2EDGP9bUQQvMHzrjToU-34" style="edgeStyle=orthogonalEdgeStyle;rounded=0;orthogonalLoop=1;jettySize=auto;html=1;exitX=1;exitY=0.5;exitDx=0;exitDy=0;entryX=0;entryY=0.5;entryDx=0;entryDy=0;" edge="1" parent="1" source="L2EDGP9bUQQvMHzrjToU-21" target="L2EDGP9bUQQvMHzrjToU-30">
          <mxGeometry relative="1" as="geometry" />
        </mxCell>
        <mxCell id="L2EDGP9bUQQvMHzrjToU-21" value="CBAM" style="rounded=0;whiteSpace=wrap;html=1;" vertex="1" parent="1">
          <mxGeometry x="400" y="500" width="80" height="30" as="geometry" />
        </mxCell>
        <mxCell id="L2EDGP9bUQQvMHzrjToU-35" style="edgeStyle=orthogonalEdgeStyle;rounded=0;orthogonalLoop=1;jettySize=auto;html=1;exitX=1;exitY=0.5;exitDx=0;exitDy=0;" edge="1" parent="1" source="L2EDGP9bUQQvMHzrjToU-28">
          <mxGeometry relative="1" as="geometry">
            <mxPoint x="650" y="385" as="targetPoint" />
          </mxGeometry>
        </mxCell>
        <mxCell id="L2EDGP9bUQQvMHzrjToU-28" value="1*1conv" style="rounded=0;whiteSpace=wrap;html=1;" vertex="1" parent="1">
          <mxGeometry x="530" y="370" width="80" height="30" as="geometry" />
        </mxCell>
        <mxCell id="L2EDGP9bUQQvMHzrjToU-39" style="edgeStyle=orthogonalEdgeStyle;rounded=0;orthogonalLoop=1;jettySize=auto;html=1;exitX=1;exitY=0.5;exitDx=0;exitDy=0;endArrow=classic;endFill=1;strokeColor=default;" edge="1" parent="1" source="L2EDGP9bUQQvMHzrjToU-29">
          <mxGeometry relative="1" as="geometry">
            <mxPoint x="700" y="445" as="targetPoint" />
            <Array as="points">
              <mxPoint x="680" y="445" />
              <mxPoint x="680" y="445" />
            </Array>
          </mxGeometry>
        </mxCell>
        <mxCell id="L2EDGP9bUQQvMHzrjToU-29" value="1*1conv" style="rounded=0;whiteSpace=wrap;html=1;" vertex="1" parent="1">
          <mxGeometry x="530" y="430" width="80" height="30" as="geometry" />
        </mxCell>
        <mxCell id="L2EDGP9bUQQvMHzrjToU-30" value="1*1conv" style="rounded=0;whiteSpace=wrap;html=1;" vertex="1" parent="1">
          <mxGeometry x="530" y="500" width="80" height="30" as="geometry" />
        </mxCell>
        <mxCell id="L2EDGP9bUQQvMHzrjToU-36" value="" style="ellipse;whiteSpace=wrap;html=1;aspect=fixed;" vertex="1" parent="1">
          <mxGeometry x="649" y="372.5" width="25" height="25" as="geometry" />
        </mxCell>
        <mxCell id="L2EDGP9bUQQvMHzrjToU-37" style="edgeStyle=orthogonalEdgeStyle;rounded=0;orthogonalLoop=1;jettySize=auto;html=1;exitX=0;exitY=0.5;exitDx=0;exitDy=0;entryX=1;entryY=0.5;entryDx=0;entryDy=0;strokeColor=default;endArrow=none;endFill=0;" edge="1" parent="1" source="L2EDGP9bUQQvMHzrjToU-36" target="L2EDGP9bUQQvMHzrjToU-36">
          <mxGeometry relative="1" as="geometry" />
        </mxCell>
        <mxCell id="L2EDGP9bUQQvMHzrjToU-42" style="edgeStyle=orthogonalEdgeStyle;rounded=0;orthogonalLoop=1;jettySize=auto;html=1;exitX=0.5;exitY=0;exitDx=0;exitDy=0;entryX=0.5;entryY=1;entryDx=0;entryDy=0;startArrow=none;startFill=0;endArrow=none;endFill=0;strokeColor=default;" edge="1" parent="1" source="L2EDGP9bUQQvMHzrjToU-36" target="L2EDGP9bUQQvMHzrjToU-36">
          <mxGeometry relative="1" as="geometry" />
        </mxCell>
        <mxCell id="L2EDGP9bUQQvMHzrjToU-46" value="" style="endArrow=classic;html=1;rounded=0;shadow=0;sketch=0;strokeColor=default;exitX=1;exitY=0.5;exitDx=0;exitDy=0;" edge="1" parent="1" source="L2EDGP9bUQQvMHzrjToU-29">
          <mxGeometry width="50" height="50" relative="1" as="geometry">
            <mxPoint x="610" y="450" as="sourcePoint" />
            <mxPoint x="661" y="397.5" as="targetPoint" />
            <Array as="points">
              <mxPoint x="661" y="445" />
            </Array>
          </mxGeometry>
        </mxCell>
        <mxCell id="L2EDGP9bUQQvMHzrjToU-50" value="" style="ellipse;whiteSpace=wrap;html=1;aspect=fixed;" vertex="1" parent="1">
          <mxGeometry x="700" y="432.5" width="25" height="25" as="geometry" />
        </mxCell>
        <mxCell id="L2EDGP9bUQQvMHzrjToU-51" style="edgeStyle=orthogonalEdgeStyle;rounded=0;orthogonalLoop=1;jettySize=auto;html=1;exitX=0;exitY=0.5;exitDx=0;exitDy=0;entryX=1;entryY=0.5;entryDx=0;entryDy=0;strokeColor=default;endArrow=none;endFill=0;" edge="1" parent="1" source="L2EDGP9bUQQvMHzrjToU-50" target="L2EDGP9bUQQvMHzrjToU-50">
          <mxGeometry relative="1" as="geometry" />
        </mxCell>
        <mxCell id="L2EDGP9bUQQvMHzrjToU-52" style="edgeStyle=orthogonalEdgeStyle;rounded=0;orthogonalLoop=1;jettySize=auto;html=1;exitX=0.5;exitY=0;exitDx=0;exitDy=0;entryX=0.5;entryY=1;entryDx=0;entryDy=0;startArrow=none;startFill=0;endArrow=none;endFill=0;strokeColor=default;" edge="1" parent="1" source="L2EDGP9bUQQvMHzrjToU-50" target="L2EDGP9bUQQvMHzrjToU-50">
          <mxGeometry relative="1" as="geometry" />
        </mxCell>
      </root>
    </mxGraphModel>
  </diagram>
</mxfile>
